<?xml version="1.0" encoding="utf-8"?>
<!-- Generator: Adobe Illustrator 24.3.0, SVG Export Plug-In . SVG Version: 6.00 Build 0)  -->
<svg version="1.1" id="Layer_1" xmlns="http://www.w3.org/2000/svg" xmlns:xlink="http://www.w3.org/1999/xlink" x="0px" y="0px"
	 viewBox="0 0 300 200" height="200px" width="300px" style="enable-background:new 0 0 300 200;" xml:space="preserve">
<style type="text/css">
	.st0{fill:#FCF8FF;}
	.st1{opacity:0.8;}
	.st2{fill:#F4E6E6;}
	.st3{fill:#52C7A3;}
	.st4{fill:#78C7C7;}
	.st5{opacity:0.25;fill:#FFFFFF;}
	.st6{opacity:0.21;fill:#FFFFFF;}
	.st7{fill:#E8DBE0;}
	.st8{fill:url(#SVGID_1_);}
	.st9{opacity:0.3;fill:#FEB783;}
	.st10{fill:url(#SVGID_2_);}
	.st11{fill:url(#SVGID_3_);}
	.st12{opacity:0.2;fill:#FEB783;}
	.st13{fill:#EBEBEB;}
	.st14{fill:url(#SVGID_4_);}
	.st15{opacity:0.2;fill:url(#SVGID_5_);}
	.st16{fill:url(#SVGID_6_);}
	.st17{opacity:0.1;fill:url(#SVGID_7_);}
	.st18{fill:#FCD652;}
	.st19{fill:#FEAD30;}
	.st20{fill:#FFFFFF;}
	.st21{fill:url(#SVGID_8_);}
	.st22{fill:url(#SVGID_9_);}
	.st23{fill:url(#SVGID_10_);}
	.st24{fill:url(#SVGID_11_);}
	.st25{fill:#FE9D00;}
	.st26{opacity:0.5;fill:#FFFFFF;}
	.st27{opacity:0.5;}
	.st28{opacity:0.2;}
	.st29{fill:#DEA61C;}
	.st30{fill:#FFDE00;}
	.st31{fill:#FFBF00;}
	.st32{opacity:0.3;fill:#FFBF00;}
	.st33{fill:#CC961C;}
	.st34{opacity:0.1;}
	.st35{fill:#B5B3E6;}
</style>
<path class="st0" d="M164.3,28.6c66.1-8,118.7,67,78.5,112c-39.9,45.3-172,61.3-198.2,23.9S98.2,36.6,164.3,28.6z"/>
<g class="st1">
	<g>
		<path class="st2" d="M238.7,153.4v-16.1H234v-27.9l-2.6-4h-11.4v25.4h-8l-2.4-3.7h-5V93.9h-4.7v-9.9h-3.7v10.4h-2.4V132h-6v6.8
			h-3.2v-35.2h-3.4l-8.2,12.4v24.5h-4.3v-7.3H166v-24.2c0,0-1.1-9.6-7.1-9.6v-7h-3.5V139h-3v5.6h-11.9v-19.7h-2.4v-6.8h-4.3v-1.4
			v-6.5h-6.1v31h-3v-7.9h-7.6v-16.1h-1.7v36.1H238.7z"/>
	</g>
</g>
<g>
	<path class="st3" d="M164.3,147.8l-4.5-0.1c-2.2-3-4.1-6.9-5.1-11.6l3.5-0.2l-3.8-1.3c-0.4-2.2-0.6-4.5-0.6-7.1
		c0,0,6.3,0.5,12.7,3.8l0.3,3l0.6-2.5c3.9,2.1,7.6,5.4,10,10.1l-1.1,4.8l2-3.1c0.8,2,1.4,4.2,1.6,6.7c0.2,4.8,0,7.7,0,7.7h-7.3
		c0,0-6.4-2.4-11.7-9L164.3,147.8z"/>
	<path class="st4" d="M178.4,152.5c0.3-2.8,1.1-5.1,2.3-7.1l1.1,2.3l-0.4-3.3c2.3-3.1,5.4-5,8.2-6.2l0.2,2l0.6-2.3
		c3.5-1.3,6.5-1.6,6.5-1.6c0,3.6-0.6,6.6-1.5,9.2l-1.9,0.6l1.6,0.2c-1.5,3.6-3.6,6.2-5.6,8l-3.7,0.2l2.4,0.9
		c-2.5,1.9-4.6,2.7-4.6,2.7h-5.2C178.4,157.9,178.3,155.9,178.4,152.5z"/>
	<path class="st5" d="M191.5,141.8c1.1-1.1,3.5-3.6,3.5-3.6s-2.8,1.9-4,2.9c-9.5,9-11.5,16.3-11.6,16.7l0.4,0.1h0.4
		C180.5,157,182.8,150.1,191.5,141.8z"/>
	<path class="st6" d="M177.2,157.9h0.8c-0.7-2.4-5.1-15.5-18.4-26.1c-1.1-0.9-3.8-2.3-3.8-2.3s2.1,2,3.1,2.8
		C171.9,142.5,176.3,155.1,177.2,157.9z"/>
	<path class="st7" d="M186.8,158.3c0,0.2-0.2,0.4-0.4,0.4h-16.6c-0.2,0-0.4-0.2-0.4-0.4l0,0c0-0.2,0.2-0.4,0.4-0.4h16.6
		C186.7,157.9,186.8,158.1,186.8,158.3L186.8,158.3z"/>
</g>
<g>
	
		<linearGradient id="SVGID_1_" gradientUnits="userSpaceOnUse" x1="-312.2314" y1="146.4532" x2="-278.5635" y2="104.8048" gradientTransform="matrix(1 0 0 1 408.8447 0)">
		<stop  offset="0" style="stop-color:#FEBD85"/>
		<stop  offset="1" style="stop-color:#FFD9B8"/>
	</linearGradient>
	<path class="st8" d="M99.4,185.1c1.8-6.3,5.6-18.5,6.6-20.5c12.8-5.2,19.2-24.4,20.6-27.8c1.4-3.4,4.4-5.6,9.5-4.6
		c5.1,0.9,12,2.6,16.4,0.7c4.4-1.9,3.1-5.4-2.1-6.9c-5.2-1.5-14.3-5.3-14.3-5.3l-3.5-30.7c0,0-21.9-15.8-27-11.4
		c0,0-20.7,30.8-21.5,37.7c-0.8,7.8-1,20.4-5.7,36.3c-1.3,4.5-6.4,15.7-11.9,26.7c0,0,10.3,3.3,17.2,4.2S99.4,185.1,99.4,185.1z"/>
	<path class="st9" d="M105.7,78.6c0,0-0.7,1.1-1.9,2.9c-0.3,7.9-0.8,24-1.5,25.1c-0.9,1.5-4.7,6.9-4.7,6.9s6.9-6,9.9-8.4
		c2.4-1.9,1.4-20,0.9-27.4C107.1,77.8,106.3,78,105.7,78.6z"/>
	<path class="st9" d="M134.7,124.2l-0.2-1.4l-22.9,0.2l-2.4,6.5l27.1-4.7C135.3,124.5,134.7,124.2,134.7,124.2z"/>
	
		<linearGradient id="SVGID_2_" gradientUnits="userSpaceOnUse" x1="-256.9516" y1="89.9117" x2="-246.2737" y2="89.7419" gradientTransform="matrix(1 0 0 1 408.8447 0)">
		<stop  offset="0" style="stop-color:#FEBD85"/>
		<stop  offset="1" style="stop-color:#FFD9B8"/>
	</linearGradient>
	<path class="st10" d="M155.8,84c0,0,6.1-0.1,6.4,4.6c0.3,4.7-2.9,6.7-6.4,7.1l-1,0l0.1-11.4L155.8,84z"/>
	
		<linearGradient id="SVGID_3_" gradientUnits="userSpaceOnUse" x1="-256.6122" y1="111.3383" x2="-245.9337" y2="111.1685" gradientTransform="matrix(1 0 0 1 408.8447 0)">
		<stop  offset="0" style="stop-color:#FEBD85"/>
		<stop  offset="1" style="stop-color:#FFD9B8"/>
	</linearGradient>
	<path class="st11" d="M155.7,105.7c0,0,8.2-1.4,8,5.2c-0.1,5.2-6.7,5.6-8.2,6.1l-1.3-0.2l0.5-10.6L155.7,105.7z"/>
	<path class="st12" d="M105.6,163.3c-1.1-2.1-4.4-3.2-4.5-3.2l-0.2,0c0,0,3.3,1.7,4.3,3.5c0.1,0.2,0.3,0.7,0.5,1.2
		c0-0.1,0.1-0.2,0.1-0.3c0.1,0,0.1-0.1,0.2-0.1C105.9,164,105.8,163.6,105.6,163.3z"/>
	<g>
		<path class="st13" d="M110.8,19.7c-3.3,0-6,2.7-6,6l0,93.6c0,3.3,2.7,6,6,6l39.2,0c3.3,0,6-2.7,6-6l0-93.6c0-3.3-2.7-6-6-6
			L110.8,19.7z"/>
		<g>
			<path class="st13" d="M156.5,52.1c0,0.4-0.2,0.7-0.4,0.7c-0.2,0-0.4-0.3-0.4-0.7l0-10.5c0-0.4,0.2-0.7,0.4-0.7
				c0.2,0,0.4,0.3,0.4,0.7L156.5,52.1z"/>
		</g>
		<g>
			<path class="st13" d="M105,55.4c0,0.4-0.2,0.7-0.4,0.7c-0.2,0-0.4-0.3-0.4-0.7l0-6.1c0-0.4,0.2-0.7,0.4-0.7
				c0.2,0,0.4,0.3,0.4,0.7L105,55.4z"/>
		</g>
		<g>
			<path class="st13" d="M105,47c0,0.4-0.2,0.7-0.4,0.7c-0.2,0-0.4-0.3-0.4-0.7l0-6.1c0-0.4,0.2-0.7,0.4-0.7c0.2,0,0.4,0.3,0.4,0.7
				L105,47z"/>
		</g>
		<g>
			<path class="st13" d="M105,37.9c0,0.4-0.2,0.7-0.4,0.7c-0.2,0-0.4-0.3-0.4-0.7l0-4.1c0-0.4,0.2-0.7,0.4-0.7
				c0.2,0,0.4,0.3,0.4,0.7L105,37.9z"/>
		</g>
	</g>
	
		<linearGradient id="SVGID_4_" gradientUnits="userSpaceOnUse" x1="-302.647" y1="72.5676" x2="-266.0331" y2="72.5676" gradientTransform="matrix(1 0 0 1 408.8447 0)">
		<stop  offset="0" style="stop-color:#4C2A71"/>
		<stop  offset="1" style="stop-color:#7D3F95"/>
	</linearGradient>
	<path class="st14" d="M155.7,119.4c0,3.2-2.6,5.7-5.7,5.7l-39.2,0c-3.2,0-5.7-2.6-5.7-5.7l0-93.6c0-3.1,2.6-5.7,5.7-5.7l39.2,0
		c3.2,0,5.7,2.6,5.7,5.7L155.7,119.4z"/>
	<path class="st12" d="M103.3,165.1c-0.4,1.2-4.4,13.4-6.7,19.7l2.8,0.2c1.8-6.3,5.6-18.7,6.6-20.6c7.7-3.1,13.1-11.3,16.4-18.1
		c-2.9,3.9-9.1,11.9-13,13.7c-3.7,1.7-7.6,0.2-8.1,0C101.7,160.2,104.5,161.6,103.3,165.1z"/>
	
		<linearGradient id="SVGID_5_" gradientUnits="userSpaceOnUse" x1="569.3245" y1="124.6193" x2="582.8537" y2="105.3944" gradientTransform="matrix(-1 0 0 1 703.0293 0)">
		<stop  offset="0" style="stop-color:#814DB0"/>
		<stop  offset="1" style="stop-color:#BE6FD3"/>
	</linearGradient>
	<path class="st15" d="M122.9,119.5c0,1,0.8,1.9,1.9,1.9h10.7c1,0,1.9-0.8,1.9-1.9l0,0c0-1-0.8-1.9-1.9-1.9h-10.7
		C123.7,117.7,122.9,118.5,122.9,119.5L122.9,119.5z"/>
	
		<linearGradient id="SVGID_6_" gradientUnits="userSpaceOnUse" x1="549.571" y1="138.0553" x2="588.8231" y2="27.7417" gradientTransform="matrix(-1 0 0 1 703.0293 0)">
		<stop  offset="0" style="stop-color:#814DB0"/>
		<stop  offset="1" style="stop-color:#BE6FD3"/>
	</linearGradient>
	<rect x="106.3" y="31" class="st16" width="47.8" height="83.4"/>
	
		<linearGradient id="SVGID_7_" gradientUnits="userSpaceOnUse" x1="549.1655" y1="137.3801" x2="588.2491" y2="27.5399" gradientTransform="matrix(-1 0 0 1 703.0293 0)">
		<stop  offset="0" style="stop-color:#814DB0"/>
		<stop  offset="1" style="stop-color:#BE6FD3"/>
	</linearGradient>
	<path class="st17" d="M152.9,114.4l-46.6-68.3v13.9l37.1,54.4H152.9z M106.3,31v8l47.8,70.1V81.8L119.5,31H106.3z"/>
	<g>
		<path class="st18" d="M150.8,63.3c0,0.7-0.6,1.3-1.3,1.3H111c-0.7,0-1.3-0.6-1.3-1.3V42.5c0-0.7,0.6-1.3,1.3-1.3h38.5
			c0.7,0,1.3,0.6,1.3,1.3V63.3z"/>
		<path class="st19" d="M138.6,54.9c0,0.9-0.7,1.6-1.6,1.6h-22.5c-0.9,0-1.6-0.7-1.6-1.6l0,0c0-0.9,0.7-1.6,1.6-1.6H137
			C137.9,53.2,138.6,54,138.6,54.9L138.6,54.9z"/>
		<path class="st19" d="M147.3,47.3c0,0.9-0.7,1.6-1.6,1.6h-22.5c-0.9,0-1.6-0.7-1.6-1.6l0,0c0-0.9,0.7-1.6,1.6-1.6h22.5
			C146.5,45.7,147.3,46.4,147.3,47.3L147.3,47.3z"/>
		<path class="st19" d="M126.7,60c0,0.9-0.7,1.6-1.6,1.6h-10.6c-0.9,0-1.6-0.7-1.6-1.6l0,0c0-0.9,0.7-1.6,1.6-1.6h10.6
			C126,58.4,126.7,59.1,126.7,60L126.7,60z"/>
		<path class="st19" d="M148.2,61.1c0,0.9-0.7,1.6-1.6,1.6h-3.9c-0.9,0-1.6-0.7-1.6-1.6l0,0c0-0.9,0.7-1.6,1.6-1.6h3.9
			C147.4,59.5,148.2,60.2,148.2,61.1L148.2,61.1z"/>
		<path class="st20" d="M114.9,48.4h3.2v-1.2h-3.2V48.4z M114.5,47.2h-1.3v1.2h1.3V47.2z M114.5,45.7h-1.3v1.2h1.3V45.7z
			 M118.1,45.7h-3.2v1.2h3.2V45.7z M117.9,49h-2.8c-0.2,0-0.4-0.1-0.5-0.3h-1.4v0.8c0,0.4,0.3,0.8,0.8,0.8h5c0.4,0,0.8-0.3,0.8-0.8
			v-0.8h-1.4C118.3,48.9,118.1,49,117.9,49z M119,43.8h-5c-0.4,0-0.8,0.3-0.8,0.8v0.8h1.4c0.1-0.1,0.3-0.3,0.5-0.3h2.8
			c0.2,0,0.4,0.1,0.5,0.3h1.4v-0.8C119.8,44.1,119.4,43.8,119,43.8z M118.5,46.8h1.3v-1.2h-1.3V46.8z M118.5,48.4h1.3v-1.2h-1.3
			V48.4z"/>
	</g>
	<g>
		<linearGradient id="SVGID_8_" gradientUnits="userSpaceOnUse" x1="129.9446" y1="104.7227" x2="129.9446" y2="95.7166">
			<stop  offset="0" style="stop-color:#F5AB2E"/>
			<stop  offset="1" style="stop-color:#FFCB5A"/>
		</linearGradient>
		<path class="st21" d="M146.2,101.1c0,2-1.6,3.5-3.5,3.5h-25.4c-2,0-3.5-1.6-3.5-3.5l0,0c0-2,1.6-3.5,3.5-3.5h25.4
			C144.6,97.6,146.2,99.2,146.2,101.1L146.2,101.1z"/>
	</g>
	<g>
		<path class="st20" d="M136.4,76.5c0,0-6.1,7.2-8.5,10.2c-1.3-2-2.9-4.4-2.9-4.4c-0.6-1-1.9-1.2-2.9-0.6c-1,0.6-1.2,1.9-0.6,2.9
			l4.4,6.7c0.4,0.6,1,0.9,1.6,0.9c0.7,0,1.3-0.2,1.7-0.7l10.3-12.3c0.7-0.9,0.6-2.2-0.3-2.9C138.4,75.5,137.1,75.6,136.4,76.5z"/>
	</g>
	<g>
		<path class="st20" d="M129.3,77.7c0-0.1,0-0.2,0-0.3c0-0.1-0.1-0.2-0.2-0.2c-0.1-0.1-0.2-0.1-0.3-0.2c-0.1-0.1-0.3-0.1-0.4-0.2
			c-0.2-0.1-0.5-0.2-0.7-0.3c-0.2-0.1-0.4-0.2-0.5-0.4c-0.1-0.1-0.3-0.3-0.3-0.5c-0.1-0.2-0.1-0.4-0.1-0.6c0-0.2,0-0.4,0.1-0.6
			c0.1-0.2,0.2-0.3,0.3-0.5c0.1-0.1,0.3-0.2,0.5-0.3c0.2-0.1,0.4-0.1,0.6-0.2v-0.9h0.6v0.9c0.2,0,0.4,0.1,0.6,0.2
			c0.2,0.1,0.3,0.2,0.4,0.4c0.1,0.2,0.2,0.3,0.3,0.5c0.1,0.2,0.1,0.4,0.1,0.7h-0.9c0-0.2,0-0.3-0.1-0.4c0-0.1-0.1-0.2-0.2-0.3
			c-0.1-0.1-0.2-0.2-0.3-0.2c-0.1,0-0.2-0.1-0.3-0.1c-0.1,0-0.3,0-0.4,0.1c-0.1,0-0.2,0.1-0.2,0.2c-0.1,0.1-0.1,0.2-0.1,0.2
			c0,0.1,0,0.2,0,0.3c0,0.1,0,0.2,0,0.3c0,0.1,0.1,0.2,0.2,0.2c0.1,0.1,0.2,0.1,0.3,0.2c0.1,0.1,0.3,0.1,0.5,0.2
			c0.3,0.1,0.5,0.2,0.7,0.3c0.2,0.1,0.4,0.2,0.5,0.4c0.1,0.1,0.2,0.3,0.3,0.5c0.1,0.2,0.1,0.4,0.1,0.6c0,0.2,0,0.4-0.1,0.6
			c-0.1,0.2-0.2,0.3-0.3,0.5c-0.1,0.1-0.3,0.2-0.5,0.3c-0.2,0.1-0.4,0.1-0.6,0.2V80h-0.6v-0.8c-0.2,0-0.4-0.1-0.6-0.1
			c-0.2-0.1-0.4-0.2-0.5-0.3c-0.1-0.1-0.3-0.3-0.4-0.5c-0.1-0.2-0.1-0.5-0.1-0.8h0.9c0,0.2,0,0.4,0.1,0.5c0.1,0.1,0.1,0.2,0.2,0.3
			c0.1,0.1,0.2,0.1,0.3,0.2c0.1,0,0.2,0,0.3,0c0.3,0,0.5-0.1,0.7-0.2C129.2,78.1,129.3,77.9,129.3,77.7z"/>
	</g>
	<g>
		
			<linearGradient id="SVGID_9_" gradientUnits="userSpaceOnUse" x1="-320.2089" y1="141.8058" x2="-286.8995" y2="100.6009" gradientTransform="matrix(1 0 0 1 408.8447 0)">
			<stop  offset="0" style="stop-color:#FEBD85"/>
			<stop  offset="1" style="stop-color:#FFD9B8"/>
		</linearGradient>
		<path class="st22" d="M93.4,117.8c0,0,12.7-12.8,17.4-14.3c4.3-1.4,14.5-1.3,17.5,0c2.8,1.2,1.9,10.6-13.5,12.3
			c-2.3,2.2-6.9,26-20.1,35.1L93.4,117.8z"/>
		<g>
			<path class="st12" d="M108.1,130.6c-3.1,7.3-7.4,15.3-13.8,19.8c0,0,4.2-1.6,6.5-4.6c5.9-7.3,8.9-16.8,11.2-23.3l0.6-2.1
				C112.7,120.5,109.5,127.4,108.1,130.6z"/>
		</g>
		<g>
			<path class="st12" d="M91.7,120.7l2-2.5l0,0c0.1-0.1,6.5-7.3,11.9-11.5c0,0-4.3,2.7-6.1,4.3c-3.6,3.3-3.9,3.5-4.9,4.7
				C92.4,118.3,91.7,120.7,91.7,120.7z"/>
		</g>
		
			<linearGradient id="SVGID_10_" gradientUnits="userSpaceOnUse" x1="-290.6301" y1="105.8145" x2="-286.7319" y2="104.1204" gradientTransform="matrix(1 0 0 1 408.8447 0)">
			<stop  offset="0" style="stop-color:#FCD7F9"/>
			<stop  offset="1" style="stop-color:#FCEBF9"/>
		</linearGradient>
		<path class="st23" d="M127.4,103.6c-2.3-0.7-7.2-0.9-9.5-0.6c1.5,1,2.6,3.3,2.8,4.1c1.2,0.2,5.2-1.5,6.9-2.5
			C128.1,104.3,127.9,103.7,127.4,103.6z"/>
		<g>
			<path class="st12" d="M109.5,104.4c0,0,3.3,1.7,4.3,3.5c0.4,0.7,1.2,3.2,1.2,3.2s0-1.8-0.9-3.6c-1.1-2.1-4.4-3.2-4.5-3.2
				L109.5,104.4z"/>
		</g>
	</g>
</g>
<linearGradient id="SVGID_11_" gradientUnits="userSpaceOnUse" x1="1869.5295" y1="238.2144" x2="1869.5295" y2="234.009" gradientTransform="matrix(0.9939 -0.1101 0.1101 0.9939 -1662.1373 127.4227)">
	<stop  offset="0" style="stop-color:#3D342B"/>
	<stop  offset="1" style="stop-color:#291C17"/>
</linearGradient>
<path class="st24" d="M226.7,152.9l-2.3,0.3c0,0-5.2,0.8-7.5,5.2l7.2-0.8c0,0,0.4-1.3,0.9-1.4c0.5-0.1,1,1.2,1,1.2l1.5-0.2
	L226.7,152.9z"/>
<g>
	<g>
		<g>
			<path class="st25" d="M192.4,28.6c-5.9-3.1-17.5,5.4-23.4,2.3c1.4-2.5,2.8-5.1,4.3-7.6c5.8,2.7,17.1-5.7,22.8-2.9
				C194.9,23,193.7,25.8,192.4,28.6z"/>
		</g>
		<path class="st26" d="M194.6,20.4c-5.6-1.1-14.6,4.8-20.2,3.8c-0.2,0.4-0.7,0.6-1.2,0.5c0,0,0,0,0,0c-1,1.8-1.9,3.5-2.9,5.3
			c0,0,0,0,0,0c0.4,0.2,0.6,0.6,0.4,0.9c0,0,0,0,0,0c5.7,1.3,14.9-4.6,20.6-3.3c0,0,0,0,0,0c0.2-0.4,0.7-0.7,1.1-0.5
			c0.9-1.9,1.7-3.8,2.6-5.7C194.6,21.2,194.4,20.8,194.6,20.4z"/>
	</g>
	<g>
		<path class="st25" d="M186.7,24.5c-0.7,1.5-3.1,3.2-5.4,3.9c-2.3,0.7-3.4,0-2.6-1.5c0.8-1.5,3.1-3.2,5.4-3.9
			C186.3,22.3,187.5,23,186.7,24.5z"/>
	</g>
	<g>
		<path class="st25" d="M191.2,23.8c-0.1,0.3-0.6,0.6-0.9,0.6c-0.4,0-0.6-0.2-0.4-0.5c0.1-0.3,0.6-0.6,1-0.6
			C191.2,23.2,191.4,23.5,191.2,23.8z"/>
	</g>
	<g>
		<path class="st25" d="M175.7,27.5c-0.2,0.3-0.6,0.6-1,0.6c-0.4,0-0.6-0.2-0.4-0.5c0.2-0.3,0.6-0.5,1-0.6
			C175.7,27.1,175.9,27.2,175.7,27.5z"/>
	</g>
	<g class="st27">
		<path class="st20" d="M183,26.2c0-0.1,0-0.1,0-0.1c0,0,0-0.1,0-0.1c0,0-0.1,0-0.1,0c-0.1,0-0.1,0-0.2,0c-0.2,0-0.3,0-0.5,0
			c-0.1,0-0.2,0-0.3-0.1c-0.1,0-0.1-0.1-0.1-0.2c0-0.1,0-0.2,0.1-0.3c0.1-0.1,0.1-0.2,0.2-0.3c0.1-0.1,0.2-0.2,0.4-0.3
			c0.1-0.1,0.3-0.2,0.5-0.3c0.2-0.1,0.3-0.2,0.5-0.2c0.1-0.1,0.1-0.3,0.2-0.4c0.2-0.1,0.3-0.1,0.5-0.2c-0.1,0.1-0.1,0.3-0.2,0.4
			c0.2,0,0.3-0.1,0.4-0.1c0.1,0,0.2,0,0.3,0.1c0.1,0,0.1,0.1,0.1,0.2c0,0.1,0,0.2-0.1,0.3c-0.3,0.1-0.6,0.2-0.9,0.3
			c0.1-0.2,0.1-0.3,0-0.3c-0.1,0-0.2,0-0.3,0c-0.1,0-0.2,0.1-0.2,0.1c-0.1,0-0.1,0.1-0.2,0.1c-0.1,0-0.1,0.1-0.2,0.1
			c0,0-0.1,0.1-0.1,0.1c0,0.1,0,0.1,0,0.1c0,0,0,0.1,0,0.1c0,0,0.1,0,0.1,0c0.1,0,0.1,0,0.3,0c0.2,0,0.3,0,0.4,0
			c0.1,0,0.2,0,0.3,0.1c0.1,0,0.1,0.1,0.1,0.2c0,0.1,0,0.2-0.1,0.3c-0.1,0.1-0.1,0.2-0.2,0.3c-0.1,0.1-0.2,0.2-0.4,0.3
			c-0.1,0.1-0.3,0.2-0.5,0.3c-0.2,0.1-0.3,0.2-0.5,0.2c-0.1,0.1-0.1,0.3-0.2,0.4c-0.2,0-0.3,0.1-0.5,0.2c0.1-0.1,0.1-0.3,0.2-0.4
			c-0.2,0-0.3,0.1-0.4,0.1c-0.1,0-0.2,0-0.3,0c-0.1,0-0.1-0.1-0.1-0.2c0-0.1,0-0.2,0.1-0.4c0.3-0.1,0.6-0.2,0.9-0.3
			c0,0.1-0.1,0.2-0.1,0.2c0,0.1,0,0.1,0.1,0.1c0,0,0.1,0,0.2,0c0.1,0,0.1,0,0.2-0.1c0.1,0,0.2-0.1,0.3-0.1c0.1,0,0.2-0.1,0.2-0.1
			c0.1,0,0.1-0.1,0.2-0.1C182.9,26.3,183,26.3,183,26.2z"/>
	</g>
</g>
<g>
	<g>
		<g>
			<path class="st25" d="M215.8,52.1c0.8,3.9,2.2,7.4,3.7,10.9c-0.5,1.3-1.1,2.6-1.6,3.8c-3.3-4.3-7-8.4-11.3-12
				C209.7,53.9,212.8,53,215.8,52.1z"/>
		</g>
		<path class="st26" d="M208.2,55.4c3.4,3.2,6.4,6.7,9.2,10.2c0.1-0.2,0.4-0.1,0.6,0.2c0,0,0,0,0,0c0.4-0.9,0.8-1.7,1.2-2.6
			c0,0,0,0,0,0c-0.1-0.2-0.1-0.6,0-0.8c0,0,0,0,0,0c-1.4-3-2.7-6.1-3.6-9.3c0,0,0,0,0,0c-0.4,0.1-0.8,0-0.9-0.2
			c-2,0.6-4,1.2-6.1,1.8C208.7,54.9,208.6,55.2,208.2,55.4z"/>
	</g>
	<g>
		<path class="st25" d="M213.9,57.3c1.2-0.5,2.4-0.1,2.8,0.8c0.4,0.9,0.2,2.2-0.4,2.8c-0.6,0.6-1.9,0.2-2.8-0.8
			C212.6,59,212.7,57.8,213.9,57.3z"/>
	</g>
	<g>
		<path class="st25" d="M212.5,55.2c0.3-0.1,0.6,0,0.7,0.2c0.1,0.2,0,0.4-0.3,0.5c-0.3,0.1-0.6,0-0.7-0.2
			C212,55.5,212.2,55.3,212.5,55.2z"/>
	</g>
	<g>
		<path class="st25" d="M217.1,62.3c0.1-0.1,0.3-0.1,0.4,0.1c0.1,0.2,0.1,0.5,0,0.6c-0.1,0.1-0.3,0.1-0.4-0.1
			C217.1,62.7,217,62.4,217.1,62.3z"/>
	</g>
	<g class="st27">
		<path class="st20" d="M215.3,58.6C215.3,58.6,215.2,58.6,215.3,58.6c-0.1,0.1-0.1,0.1-0.1,0.2c0,0,0,0.1,0,0.1c0,0,0,0.1,0,0.2
			c0,0.1,0,0.2,0.1,0.3c0,0.1,0,0.2,0,0.3c0,0.1,0,0.1-0.1,0.2c0,0.1-0.1,0.1-0.2,0.2c-0.1,0-0.1,0.1-0.2,0.1c-0.1,0-0.1,0-0.2,0
			c-0.1,0-0.1-0.1-0.2-0.1c-0.1-0.1-0.1-0.1-0.2-0.2c-0.1,0.1-0.2,0.1-0.3,0.2c-0.1-0.1-0.1-0.1-0.2-0.2c0.1-0.1,0.2-0.1,0.3-0.2
			c0-0.1-0.1-0.2-0.1-0.2c0-0.1,0-0.2,0-0.2c0-0.1,0.1-0.1,0.1-0.2c0.1-0.1,0.1-0.1,0.2-0.2c0.1,0.1,0.2,0.3,0.3,0.4
			c-0.1,0.1-0.2,0.1-0.2,0.2c0,0.1,0,0.1,0.1,0.2c0,0,0.1,0.1,0.1,0.1c0,0,0.1,0,0.1,0c0,0,0.1,0,0.1,0c0,0,0.1,0,0.1,0
			c0,0,0.1,0,0.1-0.1c0,0,0-0.1,0-0.1c0,0,0-0.1,0-0.1c0,0,0-0.1,0-0.2c0-0.1,0-0.2-0.1-0.3c0-0.1,0-0.2,0-0.2c0-0.1,0-0.1,0.1-0.2
			c0-0.1,0.1-0.1,0.2-0.2c0.1,0,0.2-0.1,0.2-0.1c0.1,0,0.1,0,0.2,0c0.1,0,0.1,0.1,0.2,0.1c0.1,0,0.1,0.1,0.2,0.2
			c0.1,0,0.2-0.1,0.2-0.1c0,0.1,0.1,0.1,0.1,0.2c-0.1,0-0.2,0.1-0.2,0.1c0,0.1,0.1,0.2,0.1,0.2c0,0.1,0,0.2,0,0.2
			c0,0.1,0,0.2-0.1,0.2c0,0.1-0.1,0.1-0.2,0.2c-0.1-0.1-0.2-0.3-0.2-0.4c0.1,0,0.1-0.1,0.1-0.1c0,0,0-0.1,0-0.1c0,0,0-0.1,0-0.1
			c0,0,0-0.1,0-0.1c0,0,0-0.1-0.1-0.1c0,0-0.1,0-0.1-0.1C215.5,58.6,215.4,58.5,215.3,58.6C215.4,58.6,215.3,58.6,215.3,58.6z"/>
	</g>
</g>
<g>
	<g>
		<g>
			<path class="st25" d="M204.4,49.8c-0.7-6.5-4.3-12-9.4-14.6c1.3-1.1,2.6-2.3,3.9-3.4c6.4,1.5,11.4,5.7,13.4,11.1
				C209.7,45.1,207,47.4,204.4,49.8z"/>
		</g>
		<path class="st26" d="M211.3,42.1c-2-4.5-6.1-8.1-11.3-9.8c-0.2,0.2-0.7,0.2-1.1,0.1c0,0,0,0,0,0c-0.9,0.8-1.8,1.6-2.7,2.4
			c0,0,0,0,0,0c0.4,0.2,0.5,0.5,0.3,0.7c0,0,0,0,0,0c4.2,2.5,7.3,7,8.3,12.4c0,0,0,0,0,0c0.4-0.3,0.8-0.3,0.8,0.2
			c1.8-1.6,3.5-3.1,5.3-4.7C210.8,43,210.9,42.4,211.3,42.1z"/>
	</g>
	<g>
		<path class="st25" d="M206,40.6c-1.2,1.1-2.8,0.8-3.7-0.4c-0.9-1.3-1-2.8,0-3.7c1-0.9,2.8-0.9,4,0.1
			C207.5,37.6,207.2,39.5,206,40.6z"/>
	</g>
	<g>
		<path class="st25" d="M207.5,43.6c-0.3,0.2-0.6,0.2-0.7-0.1c-0.1-0.3,0-0.7,0.3-0.9c0.3-0.2,0.6-0.2,0.7,0.1
			C207.9,42.9,207.8,43.4,207.5,43.6z"/>
	</g>
	<g>
		<path class="st25" d="M200.6,35.2c-0.2,0.2-0.5,0.1-0.8,0c-0.3-0.2-0.3-0.4-0.2-0.6c0.2-0.1,0.5-0.2,0.8,0
			C200.7,34.8,200.8,35,200.6,35.2z"/>
	</g>
	<g class="st27">
		<path class="st20" d="M204.1,39.2c0,0,0.1-0.1,0.1-0.1c0,0,0-0.1,0-0.1c0,0,0-0.1,0-0.2c0-0.1,0-0.1-0.1-0.2
			c-0.1-0.1-0.1-0.3-0.1-0.4c0-0.1-0.1-0.2-0.1-0.3c0-0.1,0-0.2,0-0.3c0-0.1,0.1-0.2,0.2-0.3c0.1-0.1,0.2-0.1,0.3-0.2
			c0.1,0,0.2,0,0.3,0c0.1,0,0.2,0,0.3,0.1c0.1,0,0.2,0.1,0.3,0.2c0.1-0.1,0.2-0.2,0.3-0.3c0.1,0.1,0.2,0.2,0.2,0.2
			c-0.1,0.1-0.2,0.2-0.3,0.3c0.1,0.1,0.1,0.2,0.1,0.3c0,0.1,0,0.2,0,0.3c0,0.1-0.1,0.2-0.1,0.3c-0.1,0.1-0.1,0.2-0.2,0.3
			c-0.1-0.2-0.3-0.3-0.4-0.5c0.1-0.1,0.2-0.2,0.2-0.3c0-0.1,0-0.2-0.1-0.3c0,0-0.1-0.1-0.1-0.1c0,0-0.1,0-0.1,0c0,0-0.1,0-0.1,0
			c0,0-0.1,0-0.1,0.1c0,0-0.1,0.1-0.1,0.1c0,0,0,0.1,0,0.1c0,0,0,0.1,0,0.2c0,0.1,0,0.1,0.1,0.2c0,0.1,0.1,0.3,0.1,0.4
			c0,0.1,0,0.2,0,0.3c0,0.1,0,0.2-0.1,0.3c0,0.1-0.1,0.2-0.2,0.3c-0.1,0.1-0.2,0.1-0.3,0.2c-0.1,0-0.2,0-0.3,0c-0.1,0-0.2,0-0.3-0.1
			c-0.1-0.1-0.2-0.1-0.3-0.2c-0.1,0.1-0.2,0.2-0.3,0.3c-0.1-0.1-0.1-0.2-0.2-0.3c0.1-0.1,0.2-0.2,0.3-0.3c-0.1-0.1-0.1-0.2-0.2-0.3
			c0-0.1-0.1-0.2-0.1-0.3c0-0.1,0-0.2,0.1-0.3c0.1-0.1,0.1-0.2,0.2-0.3c0.1,0.1,0.3,0.3,0.4,0.4c-0.1,0.1-0.1,0.1-0.1,0.2
			c0,0.1,0,0.1,0,0.2c0,0.1,0,0.1,0,0.2c0,0.1,0.1,0.1,0.1,0.1c0,0.1,0.1,0.1,0.1,0.1c0,0,0.1,0,0.1,0c0,0,0.1,0,0.1,0
			C204,39.2,204.1,39.2,204.1,39.2z"/>
	</g>
</g>
<g>
	<path class="st28" d="M153.8,35.8c-5.7,5.4-11.2,8.6-16,9.7c2.6,1.9,4.9,4.3,7.1,7.3c2.8-0.3,7.6-2.2,10.8-4.1
		C155.6,44.1,153.8,40.4,153.8,35.8z"/>
	<g>
		<g>
			<g>
				<path class="st25" d="M165.6,37.9c-7.2,8.3-14.4,12.8-20.4,13.8c-2.2-2.9-4.5-5.3-7.1-7.1c6.3-1.8,13.8-7.1,21.3-16.2
					C161.6,30.9,163.7,34.1,165.6,37.9z"/>
			</g>
			<path class="st26" d="M158.3,30.8c-6.4,7.3-12.7,11.8-18.2,13.7c0.4,0.3,0.3,0.7-0.1,0.8c0,0,0,0,0,0c1.7,1.4,3.3,3,4.9,4.9
				c0,0,0,0,0,0c0.4-0.1,1,0.2,1.4,0.6c0,0,0,0,0,0c5.3-1.3,11.3-5.3,17.5-11.9c0,0,0,0,0,0c-0.3-0.5-0.1-1.4,0.4-2
				c-1.4-2.4-2.8-4.6-4.2-6.5C159.3,31,158.6,31.2,158.3,30.8z"/>
		</g>
		<g>
			<path class="st25" d="M155.1,40.3c1.2,1.6,0.7,4.4-1.1,5.6c-1.8,1.2-4.2,0.5-5.4-1c-1.3-1.5-0.9-3.3,0.9-4.7
				C151.3,38.9,153.9,38.7,155.1,40.3z"/>
		</g>
		<g>
			<path class="st25" d="M159.2,36.4c0.2,0.3,0.1,0.9-0.3,1.3c-0.4,0.4-0.9,0.4-1.1,0c-0.2-0.3-0.1-0.9,0.2-1.3
				C158.5,36.1,159,36.1,159.2,36.4z"/>
		</g>
		<g>
			<path class="st25" d="M146.1,46.2c0.3,0.3,0.2,0.6-0.1,0.8c-0.3,0.1-0.8,0-1.1-0.3c-0.3-0.3-0.2-0.6,0.1-0.7
				C145.3,45.9,145.8,46,146.1,46.2z"/>
		</g>
		<g class="st27">
			<path class="st20" d="M152.8,43.3c0-0.1-0.1-0.1-0.1-0.1c-0.1,0-0.1-0.1-0.2-0.1c-0.1,0-0.1,0-0.2,0c-0.1,0-0.2,0-0.3,0.1
				c-0.2,0.1-0.4,0.1-0.6,0.1c-0.2,0-0.3,0-0.5,0c-0.2,0-0.3,0-0.4-0.1c-0.1-0.1-0.3-0.2-0.4-0.3c-0.1-0.1-0.2-0.2-0.2-0.4
				c0-0.1,0-0.2,0-0.4c0-0.1,0.1-0.2,0.2-0.4c0.1-0.1,0.2-0.2,0.3-0.4c-0.1-0.1-0.2-0.3-0.4-0.4c0.1-0.1,0.3-0.2,0.4-0.3
				c0.1,0.1,0.3,0.3,0.4,0.4c0.2-0.1,0.3-0.2,0.5-0.2c0.2,0,0.3-0.1,0.5,0c0.1,0,0.3,0.1,0.4,0.1c0.1,0.1,0.3,0.2,0.4,0.3
				c-0.2,0.2-0.5,0.4-0.7,0.5c-0.1-0.2-0.3-0.3-0.4-0.3c-0.1,0-0.3,0-0.4,0.1c-0.1,0.1-0.1,0.1-0.2,0.2c0,0.1-0.1,0.1-0.1,0.2
				c0,0.1,0,0.1,0,0.2c0,0.1,0.1,0.1,0.1,0.2c0,0.1,0.1,0.1,0.1,0.1c0,0,0.1,0,0.2,0.1c0.1,0,0.1,0,0.2,0c0.1,0,0.2,0,0.3-0.1
				c0.2-0.1,0.4-0.1,0.6-0.2c0.2,0,0.3-0.1,0.5,0c0.2,0,0.3,0,0.4,0.1c0.1,0.1,0.2,0.2,0.4,0.3c0.1,0.1,0.2,0.3,0.2,0.4
				c0,0.1,0,0.3,0,0.4c0,0.1-0.1,0.3-0.2,0.4c-0.1,0.1-0.2,0.3-0.3,0.4c0.1,0.1,0.2,0.3,0.3,0.5c-0.1,0.1-0.3,0.2-0.4,0.3
				c-0.1-0.2-0.2-0.3-0.3-0.4c-0.1,0.1-0.3,0.1-0.4,0.2c-0.2,0-0.3,0-0.5,0c-0.2,0-0.3-0.1-0.5-0.2c-0.2-0.1-0.3-0.2-0.4-0.4
				c0.2-0.2,0.5-0.3,0.7-0.5c0.1,0.1,0.2,0.2,0.2,0.2c0.1,0,0.2,0.1,0.2,0.1c0.1,0,0.2,0,0.2,0c0.1,0,0.1-0.1,0.2-0.1
				c0.1-0.1,0.1-0.1,0.2-0.2c0-0.1,0.1-0.1,0.1-0.2c0-0.1,0-0.1,0-0.2C152.9,43.4,152.9,43.3,152.8,43.3z"/>
		</g>
	</g>
</g>
<g>
	<path class="st29" d="M185.7,39c0,1.8-1.5,3.2-3.4,3.2c-1.9,0-3.4-1.5-3.4-3.2c0-1.8,1.5-3.2,3.4-3.2
		C184.2,35.7,185.7,37.2,185.7,39z"/>
	<path class="st30" d="M185.1,39c0,1.8-1.5,3.2-3.4,3.2c-1.9,0-3.4-1.5-3.4-3.2c0-1.8,1.5-3.2,3.4-3.2
		C183.6,35.7,185.1,37.2,185.1,39z"/>
	<path class="st31" d="M184.7,39c0,1.6-1.3,2.8-3,2.8c-1.7,0-3-1.3-3-2.8c0-1.6,1.3-2.8,3-2.8C183.4,36.1,184.7,37.4,184.7,39z"/>
	<path class="st32" d="M181.7,36.1c-0.9,0-1.6,0.3-2.2,0.9c0.5-0.5,1.3-0.8,2.1-0.8c1.7,0,3,1.3,3,2.8c0,0.8-0.3,1.4-0.8,2
		c0.6-0.5,0.9-1.2,0.9-2.1C184.7,37.4,183.4,36.1,181.7,36.1z"/>
	<g>
		<g>
			<path class="st33" d="M182.1,39.5c0,0,0-0.1,0-0.1c0,0,0-0.1-0.1-0.1c0,0-0.1-0.1-0.1-0.1c-0.1,0-0.1-0.1-0.2-0.1
				c-0.1,0-0.2-0.1-0.3-0.1c-0.1,0-0.2-0.1-0.2-0.2c-0.1-0.1-0.1-0.1-0.1-0.2c0-0.1-0.1-0.2-0.1-0.3c0-0.1,0-0.2,0-0.3
				c0-0.1,0.1-0.1,0.1-0.2c0.1-0.1,0.1-0.1,0.2-0.1c0.1,0,0.2-0.1,0.3-0.1v-0.4h0.3v0.4c0.1,0,0.2,0,0.3,0.1c0.1,0,0.1,0.1,0.2,0.2
				c0.1,0.1,0.1,0.1,0.1,0.2c0,0.1,0,0.2,0,0.3h-0.4c0-0.1,0-0.1,0-0.2c0-0.1,0-0.1-0.1-0.1c0,0-0.1-0.1-0.1-0.1c0,0-0.1,0-0.2,0
				c-0.1,0-0.1,0-0.2,0c0,0-0.1,0-0.1,0.1c0,0-0.1,0.1-0.1,0.1c0,0,0,0.1,0,0.1c0,0,0,0.1,0,0.1c0,0,0,0.1,0.1,0.1
				c0,0,0.1,0.1,0.1,0.1c0.1,0,0.1,0.1,0.2,0.1c0.1,0,0.2,0.1,0.3,0.1c0.1,0,0.2,0.1,0.2,0.2c0.1,0.1,0.1,0.1,0.1,0.2
				c0,0.1,0.1,0.2,0.1,0.3c0,0.1,0,0.2-0.1,0.3c0,0.1-0.1,0.1-0.1,0.2c-0.1,0.1-0.1,0.1-0.2,0.1c-0.1,0-0.2,0.1-0.3,0.1v0.3h-0.3
				v-0.3c-0.1,0-0.2,0-0.3-0.1c-0.1,0-0.2-0.1-0.2-0.1c-0.1-0.1-0.1-0.1-0.2-0.2c0-0.1-0.1-0.2-0.1-0.3h0.4c0,0.1,0,0.2,0,0.2
				c0,0.1,0.1,0.1,0.1,0.1c0,0,0.1,0.1,0.1,0.1c0.1,0,0.1,0,0.2,0c0.1,0,0.2,0,0.3-0.1C182.1,39.7,182.1,39.6,182.1,39.5z"/>
		</g>
	</g>
</g>
<g>
	<path class="st29" d="M204.4,28.1c-1.8-0.3-3-1.4-2.8-2.5c0.2-1,1.8-1.6,3.5-1.3c1.8,0.3,3,1.4,2.8,2.5
		C207.7,27.9,206.1,28.5,204.4,28.1z"/>
	<path class="st30" d="M204.5,27.8c-1.8-0.3-3-1.4-2.8-2.5c0.2-1,1.8-1.6,3.5-1.3c1.8,0.3,3,1.4,2.8,2.5
		C207.8,27.6,206.2,28.1,204.5,27.8z"/>
	<path class="st31" d="M204.5,27.6c-1.5-0.3-2.7-1.3-2.5-2.2c0.2-0.9,1.6-1.4,3.1-1.1c1.5,0.3,2.7,1.3,2.5,2.2
		C207.4,27.4,206,27.9,204.5,27.6z"/>
	<path class="st32" d="M207.6,26.5c0.1-0.5-0.2-0.9-0.6-1.3C207.4,25.5,207.6,26,207.6,26.5c-0.3,0.8-1.6,1.3-3.2,1
		c-0.7-0.1-1.4-0.4-1.8-0.8c0.4,0.4,1.1,0.7,1.9,0.9C206,27.9,207.4,27.4,207.6,26.5z"/>
	<g>
		<g>
			<path class="st33" d="M204.2,26.1c0,0,0.1,0,0.1,0c0,0,0.1,0,0.1,0c0,0,0.1,0,0.1-0.1c0,0,0.1-0.1,0.1-0.1c0-0.1,0.1-0.1,0.2-0.1
				c0.1,0,0.1-0.1,0.2-0.1c0.1,0,0.1,0,0.2,0c0.1,0,0.2,0,0.3,0c0.1,0,0.2,0,0.3,0.1c0.1,0,0.1,0.1,0.2,0.1c0.1,0,0.1,0.1,0.1,0.1
				c0,0,0,0.1,0,0.2l0.4,0.1l0,0.2l-0.4-0.1c0,0.1-0.1,0.1-0.1,0.1c0,0-0.1,0.1-0.2,0.1c-0.1,0-0.2,0-0.2,0c-0.1,0-0.2,0-0.3,0
				l0-0.2c0.1,0,0.1,0,0.2,0c0.1,0,0.1,0,0.1,0c0,0,0.1,0,0.1,0c0,0,0,0,0-0.1c0,0,0-0.1,0-0.1c0,0,0-0.1-0.1-0.1c0,0-0.1,0-0.1-0.1
				c0,0-0.1,0-0.1,0c0,0-0.1,0-0.1,0c0,0-0.1,0-0.1,0c0,0-0.1,0-0.1,0.1c0,0-0.1,0.1-0.1,0.1c0,0.1-0.1,0.1-0.2,0.1
				c-0.1,0-0.1,0.1-0.2,0.1c-0.1,0-0.1,0-0.2,0c-0.1,0-0.2,0-0.3,0c-0.1,0-0.2,0-0.3-0.1c-0.1,0-0.1-0.1-0.2-0.1
				c0,0-0.1-0.1-0.1-0.1c0-0.1,0-0.1,0-0.2l-0.3-0.1l0-0.2l0.3,0.1c0-0.1,0-0.1,0.1-0.1c0,0,0.1-0.1,0.2-0.1c0.1,0,0.1,0,0.2,0
				c0.1,0,0.2,0,0.3,0l0,0.2c-0.1,0-0.2,0-0.2,0c-0.1,0-0.1,0-0.1,0c0,0-0.1,0-0.1,0.1c0,0,0,0.1,0,0.1c0,0.1,0,0.1,0.1,0.2
				C204,26,204.1,26,204.2,26.1z"/>
		</g>
	</g>
</g>
<g>
	<path class="st29" d="M215.1,48.5c-0.6-1-0.6-2.1,0-2.4c0.6-0.3,1.5,0.2,2.1,1.2c0.6,1,0.6,2.1,0,2.4
		C216.7,50,215.7,49.5,215.1,48.5z"/>
	<path class="st30" d="M215.3,48.4c-0.6-1-0.6-2.1,0-2.4c0.6-0.3,1.5,0.2,2.1,1.2c0.6,1,0.6,2.1,0,2.4
		C216.8,49.9,215.9,49.4,215.3,48.4z"/>
	<path class="st31" d="M215.4,48.3c-0.5-0.9-0.5-1.8,0-2.1c0.5-0.3,1.3,0.2,1.9,1c0.5,0.9,0.5,1.8,0,2.1
		C216.8,49.6,215.9,49.2,215.4,48.3z"/>
	<path class="st32" d="M217.3,49.3c0.3-0.2,0.4-0.5,0.4-0.9C217.6,48.8,217.5,49.1,217.3,49.3c-0.5,0.2-1.3-0.2-1.9-1.1
		c-0.3-0.4-0.4-0.9-0.4-1.2c0,0.4,0.1,0.9,0.4,1.3C215.9,49.2,216.8,49.6,217.3,49.3z"/>
	<g>
		<g>
			<path class="st33" d="M216,47.5C216,47.5,216.1,47.6,216,47.5c0.1,0.1,0.1,0.1,0.1,0.1c0,0,0,0,0.1,0c0,0,0.1,0,0.1,0
				c0,0,0.1,0,0.1,0c0,0,0.1,0,0.1,0c0,0,0.1,0,0.1,0.1c0,0,0.1,0.1,0.1,0.1c0,0.1,0.1,0.1,0.1,0.2c0,0,0,0.1,0,0.1c0,0,0,0.1,0,0.1
				c0,0,0,0.1-0.1,0.1l0.1,0.2l-0.1,0.1l-0.1-0.2c0,0-0.1,0-0.1,0c0,0-0.1,0-0.1-0.1c0,0-0.1-0.1-0.1-0.1c0,0-0.1-0.1-0.1-0.2
				l0.1-0.1c0,0,0,0.1,0.1,0.1c0,0,0,0,0.1,0.1c0,0,0,0,0.1,0c0,0,0,0,0.1,0c0,0,0,0,0,0c0,0,0,0,0-0.1c0,0,0,0,0-0.1
				c0,0,0-0.1,0-0.1c0,0,0,0,0-0.1c0,0,0,0-0.1,0c0,0,0,0-0.1,0c0,0-0.1,0-0.1,0c0,0-0.1,0-0.1,0c0,0-0.1,0-0.1,0c0,0-0.1,0-0.1-0.1
				c0,0-0.1-0.1-0.1-0.1c0-0.1-0.1-0.1-0.1-0.2c0,0,0-0.1,0-0.1c0,0,0-0.1,0-0.1c0,0,0-0.1,0.1-0.1l-0.1-0.2l0.1-0.1L216,47
				c0,0,0.1,0,0.1,0c0,0,0.1,0,0.1,0c0,0,0.1,0.1,0.1,0.1c0,0,0.1,0.1,0.1,0.2l-0.1,0.1c0,0-0.1-0.1-0.1-0.1c0,0-0.1,0-0.1-0.1
				c0,0,0,0-0.1,0c0,0,0,0-0.1,0c0,0-0.1,0.1-0.1,0.1C216,47.4,216,47.4,216,47.5z"/>
		</g>
	</g>
</g>
<g>
	<path class="st29" d="M166.1,25.9c-1.5,0.7-3,0.8-3.3,0.1c-0.3-0.6,0.7-1.7,2.2-2.4c1.5-0.7,3-0.8,3.3-0.1
		C168.6,24.1,167.6,25.2,166.1,25.9z"/>
	<path class="st30" d="M166,25.7c-1.5,0.7-3,0.8-3.3,0.1c-0.3-0.6,0.7-1.7,2.2-2.4c1.5-0.7,3-0.8,3.3-0.1
		C168.5,23.9,167.5,25,166,25.7z"/>
	<path class="st31" d="M165.9,25.6c-1.3,0.6-2.6,0.7-2.9,0.1c-0.3-0.6,0.6-1.5,1.9-2.1c1.3-0.6,2.6-0.7,2.9-0.1
		C168.1,24,167.3,25,165.9,25.6z"/>
	<path class="st32" d="M167.8,23.4c-0.1-0.3-0.5-0.4-1.1-0.4C167.3,23.1,167.6,23.2,167.8,23.4c0.2,0.6-0.7,1.5-2,2.1
		c-0.6,0.3-1.3,0.5-1.8,0.5c0.5,0,1.2-0.2,1.9-0.5C167.3,25,168.1,24,167.8,23.4z"/>
	<g>
		<g>
			<path class="st33" d="M165.1,24.9c0,0,0.1,0,0.1-0.1c0,0,0.1,0,0.1-0.1c0,0,0-0.1,0.1-0.1c0,0,0-0.1,0-0.1c0-0.1,0-0.1,0.1-0.2
				c0,0,0.1-0.1,0.1-0.1c0,0,0.1-0.1,0.1-0.1c0.1,0,0.1-0.1,0.2-0.1c0.1,0,0.2-0.1,0.2-0.1c0.1,0,0.1,0,0.2,0c0.1,0,0.1,0,0.1,0
				c0,0,0.1,0,0.1,0.1l0.3-0.1l0,0.1l-0.3,0.1c0,0,0,0.1,0,0.1c0,0-0.1,0.1-0.1,0.1c0,0-0.1,0.1-0.2,0.1c-0.1,0-0.2,0.1-0.2,0.1
				l-0.1-0.1c0.1,0,0.1-0.1,0.2-0.1c0,0,0.1-0.1,0.1-0.1c0,0,0-0.1,0.1-0.1c0,0,0,0,0-0.1c0,0,0,0,0,0c0,0,0,0-0.1,0
				c0,0-0.1,0-0.1,0c0,0-0.1,0-0.1,0c0,0-0.1,0-0.1,0.1c0,0-0.1,0-0.1,0.1c0,0,0,0.1-0.1,0.1c0,0,0,0.1,0,0.1c0,0.1,0,0.1-0.1,0.2
				c0,0-0.1,0.1-0.1,0.1c0,0-0.1,0.1-0.1,0.1c-0.1,0-0.1,0.1-0.2,0.1c-0.1,0-0.2,0.1-0.2,0.1c-0.1,0-0.1,0-0.2,0c-0.1,0-0.1,0-0.2,0
				c0,0-0.1,0-0.1-0.1l-0.3,0.1l0-0.1l0.3-0.1c0,0,0-0.1,0-0.1c0,0,0-0.1,0.1-0.1c0,0,0.1-0.1,0.2-0.1c0.1-0.1,0.2-0.1,0.3-0.2
				l0.1,0.1c-0.1,0-0.1,0.1-0.2,0.1c0,0-0.1,0.1-0.1,0.1c0,0,0,0.1,0,0.1c0,0,0,0,0,0.1c0,0,0.1,0.1,0.1,0.1
				C164.9,25,165,25,165.1,24.9z"/>
		</g>
	</g>
</g>
<g>
	<rect x="196" y="142.4" class="st34" width="35.3" height="16.2"/>
	<g>
		<g>
			<rect x="194.8" y="142.4" class="st25" width="35.3" height="16.2"/>
			<path class="st26" d="M227.5,143.5h-30.2c0,0.8-0.7,1.4-1.5,1.4c0,0,0,0,0,0V156c0,0,0,0,0,0c0.8,0,1.5,0.7,1.5,1.5c0,0,0,0,0,0
				h30.2c0,0,0,0,0,0c0-0.8,0.6-1.5,1.5-1.5v-11.1C228.2,144.9,227.6,144.3,227.5,143.5z"/>
		</g>
		<path class="st25" d="M218,150.5c0,3-2.5,5.5-5.5,5.5c-3,0-5.5-2.5-5.5-5.5c0-3,2.5-5.5,5.5-5.5C215.5,145,218,147.5,218,150.5z"
			/>
		<path class="st25" d="M224.6,150.5c0,0.6-0.5,1.1-1.1,1.1c-0.6,0-1.1-0.5-1.1-1.1c0-0.6,0.5-1.1,1.1-1.1
			C224.1,149.4,224.6,149.9,224.6,150.5z"/>
		<path class="st25" d="M202.6,150.5c0,0.6-0.5,1.1-1.1,1.1c-0.6,0-1.1-0.5-1.1-1.1c0-0.6,0.5-1.1,1.1-1.1
			C202.1,149.4,202.6,149.9,202.6,150.5z"/>
		<g class="st27">
			<path class="st20" d="M213.3,151.9c0-0.1,0-0.2,0-0.3c0-0.1-0.1-0.2-0.1-0.2c-0.1-0.1-0.2-0.1-0.3-0.2c-0.1-0.1-0.2-0.1-0.4-0.2
				c-0.3-0.1-0.5-0.2-0.7-0.3c-0.2-0.1-0.4-0.2-0.6-0.4c-0.2-0.1-0.3-0.3-0.4-0.5c-0.1-0.2-0.1-0.4-0.1-0.7c0-0.2,0-0.4,0.1-0.6
				c0.1-0.2,0.2-0.4,0.3-0.5c0.1-0.1,0.3-0.3,0.5-0.3c0.2-0.1,0.4-0.1,0.7-0.2v-0.9h0.7v0.9c0.2,0,0.4,0.1,0.6,0.2
				c0.2,0.1,0.4,0.2,0.5,0.4c0.1,0.2,0.2,0.4,0.3,0.6c0.1,0.2,0.1,0.5,0.1,0.7h-1.2c0-0.3-0.1-0.6-0.2-0.7c-0.1-0.2-0.3-0.2-0.5-0.2
				c-0.1,0-0.2,0-0.3,0.1c-0.1,0-0.2,0.1-0.2,0.1c-0.1,0.1-0.1,0.1-0.1,0.2c0,0.1,0,0.2,0,0.3c0,0.1,0,0.2,0,0.3
				c0,0.1,0.1,0.2,0.1,0.2c0.1,0.1,0.2,0.1,0.3,0.2c0.1,0.1,0.2,0.1,0.4,0.2c0.3,0.1,0.5,0.2,0.7,0.3c0.2,0.1,0.4,0.2,0.6,0.4
				c0.2,0.1,0.3,0.3,0.4,0.5c0.1,0.2,0.1,0.4,0.1,0.7c0,0.2,0,0.5-0.1,0.6c-0.1,0.2-0.2,0.4-0.3,0.5c-0.1,0.1-0.3,0.3-0.5,0.3
				c-0.2,0.1-0.4,0.1-0.7,0.2v0.8h-0.7v-0.8c-0.2,0-0.4-0.1-0.7-0.2c-0.2-0.1-0.4-0.2-0.6-0.4c-0.2-0.1-0.3-0.3-0.4-0.6
				c-0.1-0.2-0.1-0.5-0.1-0.8h1.2c0,0.2,0,0.4,0.1,0.5c0.1,0.1,0.1,0.2,0.2,0.3c0.1,0.1,0.2,0.1,0.3,0.2c0.1,0,0.2,0,0.3,0
				c0.1,0,0.2,0,0.3-0.1c0.1,0,0.2-0.1,0.2-0.1c0.1-0.1,0.1-0.1,0.1-0.2C213.3,152.1,213.3,152,213.3,151.9z"/>
		</g>
	</g>
	<g>
		<g>
			<rect x="192.2" y="142.4" class="st25" width="35.3" height="16.2"/>
			<path class="st26" d="M225,143.5h-30.2c0,0.8-0.7,1.4-1.5,1.4c0,0,0,0,0,0V156c0,0,0,0,0,0c0.8,0,1.5,0.7,1.5,1.5c0,0,0,0,0,0
				H225c0,0,0,0,0,0c0-0.8,0.7-1.5,1.5-1.5v-11.1C225.6,144.9,225,144.3,225,143.5z"/>
		</g>
		<path class="st25" d="M215.4,150.5c0,3-2.5,5.5-5.5,5.5c-3,0-5.5-2.5-5.5-5.5c0-3,2.5-5.5,5.5-5.5
			C212.9,145,215.4,147.5,215.4,150.5z"/>
		<path class="st25" d="M222.1,150.5c0,0.6-0.5,1.1-1.1,1.1c-0.6,0-1.1-0.5-1.1-1.1c0-0.6,0.5-1.1,1.1-1.1
			C221.6,149.4,222.1,149.9,222.1,150.5z"/>
		<path class="st25" d="M200.1,150.5c0,0.6-0.5,1.1-1.1,1.1c-0.6,0-1.1-0.5-1.1-1.1c0-0.6,0.5-1.1,1.1-1.1
			C199.6,149.4,200.1,149.9,200.1,150.5z"/>
		<g class="st27">
			<path class="st20" d="M210.7,151.9c0-0.1,0-0.2,0-0.3c0-0.1-0.1-0.2-0.1-0.2c-0.1-0.1-0.2-0.1-0.3-0.2c-0.1-0.1-0.2-0.1-0.4-0.2
				c-0.3-0.1-0.5-0.2-0.7-0.3c-0.2-0.1-0.4-0.2-0.6-0.4c-0.2-0.1-0.3-0.3-0.4-0.5c-0.1-0.2-0.1-0.4-0.1-0.7c0-0.2,0-0.4,0.1-0.6
				c0.1-0.2,0.2-0.4,0.3-0.5c0.1-0.1,0.3-0.3,0.5-0.3c0.2-0.1,0.4-0.1,0.7-0.2v-0.9h0.7v0.9c0.2,0,0.4,0.1,0.6,0.2
				c0.2,0.1,0.4,0.2,0.5,0.4c0.1,0.2,0.2,0.4,0.3,0.6c0.1,0.2,0.1,0.5,0.1,0.7h-1.2c0-0.3-0.1-0.6-0.2-0.7c-0.1-0.2-0.3-0.2-0.5-0.2
				c-0.1,0-0.2,0-0.3,0.1c-0.1,0-0.2,0.1-0.2,0.1c-0.1,0.1-0.1,0.1-0.1,0.2c0,0.1,0,0.2,0,0.3c0,0.1,0,0.2,0,0.3
				c0,0.1,0.1,0.2,0.1,0.2c0.1,0.1,0.2,0.1,0.3,0.2c0.1,0.1,0.2,0.1,0.4,0.2c0.3,0.1,0.5,0.2,0.7,0.3c0.2,0.1,0.4,0.2,0.6,0.4
				c0.2,0.1,0.3,0.3,0.4,0.5c0.1,0.2,0.1,0.4,0.1,0.7c0,0.2,0,0.5-0.1,0.6c-0.1,0.2-0.2,0.4-0.3,0.5c-0.1,0.1-0.3,0.3-0.5,0.3
				c-0.2,0.1-0.4,0.1-0.7,0.2v0.8h-0.7v-0.8c-0.2,0-0.4-0.1-0.7-0.2c-0.2-0.1-0.4-0.2-0.6-0.4c-0.2-0.1-0.3-0.3-0.4-0.6
				c-0.1-0.2-0.1-0.5-0.1-0.8h1.2c0,0.2,0,0.4,0.1,0.5c0.1,0.1,0.1,0.2,0.2,0.3c0.1,0.1,0.2,0.1,0.3,0.2c0.1,0,0.2,0,0.3,0
				c0.1,0,0.2,0,0.3-0.1c0.1,0,0.2-0.1,0.2-0.1c0.1-0.1,0.1-0.1,0.1-0.2C210.7,152.1,210.7,152,210.7,151.9z"/>
		</g>
	</g>
	<g>
		<g>
			<rect x="189.7" y="142.4" class="st25" width="35.3" height="16.2"/>
			<path class="st26" d="M222.4,143.5h-30.2c0,0.8-0.7,1.4-1.5,1.4c0,0,0,0,0,0V156c0,0,0,0,0,0c0.8,0,1.5,0.7,1.5,1.5c0,0,0,0,0,0
				h30.2c0,0,0,0,0,0c0-0.8,0.7-1.5,1.5-1.5v-11.1C223.1,144.9,222.4,144.3,222.4,143.5z"/>
		</g>
		<path class="st25" d="M212.8,150.5c0,3-2.5,5.5-5.5,5.5c-3,0-5.5-2.5-5.5-5.5c0-3,2.5-5.5,5.5-5.5
			C210.4,145,212.8,147.5,212.8,150.5z"/>
		<path class="st25" d="M219.5,150.5c0,0.6-0.5,1.1-1.1,1.1c-0.6,0-1.1-0.5-1.1-1.1c0-0.6,0.5-1.1,1.1-1.1
			C219,149.4,219.5,149.9,219.5,150.5z"/>
		<path class="st25" d="M197.5,150.5c0,0.6-0.5,1.1-1.1,1.1c-0.6,0-1.1-0.5-1.1-1.1c0-0.6,0.5-1.1,1.1-1.1
			C197,149.4,197.5,149.9,197.5,150.5z"/>
		<g class="st27">
			<path class="st20" d="M208.2,151.9c0-0.1,0-0.2,0-0.3c0-0.1-0.1-0.2-0.1-0.2c-0.1-0.1-0.2-0.1-0.3-0.2c-0.1-0.1-0.2-0.1-0.4-0.2
				c-0.3-0.1-0.5-0.2-0.7-0.3c-0.2-0.1-0.4-0.2-0.6-0.4c-0.2-0.1-0.3-0.3-0.4-0.5c-0.1-0.2-0.1-0.4-0.1-0.7c0-0.2,0-0.4,0.1-0.6
				c0.1-0.2,0.2-0.4,0.3-0.5c0.1-0.1,0.3-0.3,0.5-0.3c0.2-0.1,0.4-0.1,0.7-0.2v-0.9h0.7v0.9c0.2,0,0.4,0.1,0.6,0.2
				c0.2,0.1,0.4,0.2,0.5,0.4c0.1,0.2,0.2,0.4,0.3,0.6c0.1,0.2,0.1,0.5,0.1,0.7h-1.2c0-0.3-0.1-0.6-0.2-0.7c-0.1-0.2-0.3-0.2-0.5-0.2
				c-0.1,0-0.2,0-0.3,0.1c-0.1,0-0.2,0.1-0.2,0.1c-0.1,0.1-0.1,0.1-0.1,0.2c0,0.1,0,0.2,0,0.3c0,0.1,0,0.2,0,0.3
				c0,0.1,0.1,0.2,0.1,0.2c0.1,0.1,0.2,0.1,0.3,0.2c0.1,0.1,0.2,0.1,0.4,0.2c0.3,0.1,0.5,0.2,0.7,0.3c0.2,0.1,0.4,0.2,0.6,0.4
				c0.2,0.1,0.3,0.3,0.4,0.5c0.1,0.2,0.1,0.4,0.1,0.7c0,0.2,0,0.5-0.1,0.6c-0.1,0.2-0.2,0.4-0.3,0.5c-0.1,0.1-0.3,0.3-0.5,0.3
				c-0.2,0.1-0.4,0.1-0.7,0.2v0.8h-0.7v-0.8c-0.2,0-0.4-0.1-0.7-0.2c-0.2-0.1-0.4-0.2-0.6-0.4c-0.2-0.1-0.3-0.3-0.4-0.6
				c-0.1-0.2-0.1-0.5-0.1-0.8h1.2c0,0.2,0,0.4,0.1,0.5c0.1,0.1,0.1,0.2,0.2,0.3c0.1,0.1,0.2,0.1,0.3,0.2c0.1,0,0.2,0,0.3,0
				c0.1,0,0.2,0,0.3-0.1c0.1,0,0.2-0.1,0.2-0.1c0.1-0.1,0.1-0.1,0.1-0.2C208.1,152.1,208.2,152,208.2,151.9z"/>
		</g>
	</g>
	<g>
		<g>
			<rect x="187.1" y="142.4" class="st25" width="35.3" height="16.2"/>
			<path class="st26" d="M219.8,143.5h-30.2c0,0.8-0.7,1.4-1.5,1.4c0,0,0,0,0,0V156c0,0,0,0,0,0c0.8,0,1.5,0.7,1.5,1.5c0,0,0,0,0,0
				h30.2c0,0,0,0,0,0c0-0.8,0.7-1.5,1.5-1.5v-11.1C220.5,144.9,219.9,144.3,219.8,143.5z"/>
		</g>
		<path class="st25" d="M210.2,150.5c0,3-2.5,5.5-5.5,5.5c-3,0-5.5-2.5-5.5-5.5c0-3,2.5-5.5,5.5-5.5
			C207.8,145,210.2,147.5,210.2,150.5z"/>
		<path class="st25" d="M216.9,150.5c0,0.6-0.5,1.1-1.1,1.1c-0.6,0-1.1-0.5-1.1-1.1c0-0.6,0.5-1.1,1.1-1.1
			C216.4,149.4,216.9,149.9,216.9,150.5z"/>
		<path class="st25" d="M194.9,150.5c0,0.6-0.5,1.1-1.1,1.1c-0.6,0-1.1-0.5-1.1-1.1c0-0.6,0.5-1.1,1.1-1.1
			C194.4,149.4,194.9,149.9,194.9,150.5z"/>
		<g class="st27">
			<path class="st20" d="M205.6,151.9c0-0.1,0-0.2,0-0.3c0-0.1-0.1-0.2-0.1-0.2c-0.1-0.1-0.2-0.1-0.3-0.2c-0.1-0.1-0.2-0.1-0.4-0.2
				c-0.3-0.1-0.5-0.2-0.7-0.3c-0.2-0.1-0.4-0.2-0.6-0.4c-0.2-0.1-0.3-0.3-0.4-0.5c-0.1-0.2-0.1-0.4-0.1-0.7c0-0.2,0-0.4,0.1-0.6
				c0.1-0.2,0.2-0.4,0.3-0.5c0.1-0.1,0.3-0.3,0.5-0.3c0.2-0.1,0.4-0.1,0.7-0.2v-0.9h0.7v0.9c0.2,0,0.4,0.1,0.6,0.2
				c0.2,0.1,0.4,0.2,0.5,0.4c0.1,0.2,0.2,0.4,0.3,0.6c0.1,0.2,0.1,0.5,0.1,0.7h-1.2c0-0.3-0.1-0.6-0.2-0.7c-0.1-0.2-0.3-0.2-0.5-0.2
				c-0.1,0-0.2,0-0.3,0.1c-0.1,0-0.2,0.1-0.2,0.1c-0.1,0.1-0.1,0.1-0.1,0.2c0,0.1,0,0.2,0,0.3c0,0.1,0,0.2,0,0.3
				c0,0.1,0.1,0.2,0.1,0.2c0.1,0.1,0.2,0.1,0.3,0.2c0.1,0.1,0.2,0.1,0.4,0.2c0.3,0.1,0.5,0.2,0.7,0.3c0.2,0.1,0.4,0.2,0.6,0.4
				c0.2,0.1,0.3,0.3,0.4,0.5c0.1,0.2,0.1,0.4,0.1,0.7c0,0.2,0,0.5-0.1,0.6c-0.1,0.2-0.2,0.4-0.3,0.5c-0.1,0.1-0.3,0.3-0.5,0.3
				c-0.2,0.1-0.4,0.1-0.7,0.2v0.8h-0.7v-0.8c-0.2,0-0.4-0.1-0.7-0.2c-0.2-0.1-0.4-0.2-0.6-0.4c-0.2-0.1-0.3-0.3-0.4-0.6
				c-0.1-0.2-0.1-0.5-0.1-0.8h1.2c0,0.2,0,0.4,0.1,0.5c0.1,0.1,0.1,0.2,0.2,0.3c0.1,0.1,0.2,0.1,0.3,0.2c0.1,0,0.2,0,0.3,0
				c0.1,0,0.2,0,0.3-0.1c0.1,0,0.2-0.1,0.2-0.1c0.1-0.1,0.1-0.1,0.1-0.2C205.6,152.1,205.6,152,205.6,151.9z"/>
		</g>
	</g>
</g>
<g>
	<g>
		<path class="st35" d="M235,81.5c-0.3,0-0.5,0.2-0.5,0.5c0,0.3,0.2,0.5,0.5,0.5h5c0.3,0,0.5-0.2,0.5-0.5c0-0.3-0.2-0.5-0.5-0.5H235
			z"/>
	</g>
	<g>
		<path class="st35" d="M242.2,81.5c-0.3,0-0.5,0.2-0.5,0.5c0,0.3,0.2,0.5,0.5,0.5h0.9c0.3,0,0.5-0.2,0.5-0.5c0-0.3-0.2-0.5-0.5-0.5
			H242.2z"/>
	</g>
</g>
<g>
	<g>
		<path class="st35" d="M64.9,122.6c-0.3,0-0.5,0.2-0.5,0.5c0,0.3,0.2,0.5,0.5,0.5h5c0.3,0,0.5-0.2,0.5-0.5c0-0.3-0.2-0.5-0.5-0.5
			H64.9z"/>
	</g>
	<g>
		<path class="st35" d="M72.1,122.6c-0.3,0-0.5,0.2-0.5,0.5c0,0.3,0.2,0.5,0.5,0.5H73c0.3,0,0.5-0.2,0.5-0.5c0-0.3-0.2-0.5-0.5-0.5
			H72.1z"/>
	</g>
</g>
<g>
	<g>
		<path class="st35" d="M193.3,66.2c-0.3,0-0.5,0.2-0.5,0.5c0,0.3,0.2,0.5,0.5,0.5h5c0.3,0,0.5-0.2,0.5-0.5c0-0.3-0.2-0.5-0.5-0.5
			H193.3z"/>
	</g>
	<g>
		<path class="st35" d="M200.4,66.2c-0.3,0-0.5,0.2-0.5,0.5c0,0.3,0.2,0.5,0.5,0.5h0.9c0.3,0,0.5-0.2,0.5-0.5c0-0.3-0.2-0.5-0.5-0.5
			H200.4z"/>
	</g>
</g>
<g>
	<g>
		<path class="st35" d="M86.9,80.6c-0.3,0-0.5,0.2-0.5,0.5c0,0.3,0.2,0.5,0.5,0.5h5c0.3,0,0.5-0.2,0.5-0.5c0-0.3-0.2-0.5-0.5-0.5
			H86.9z"/>
	</g>
	<g>
		<path class="st35" d="M94.1,80.6c-0.3,0-0.5,0.2-0.5,0.5c0,0.3,0.2,0.5,0.5,0.5H95c0.3,0,0.5-0.2,0.5-0.5c0-0.3-0.2-0.5-0.5-0.5
			H94.1z"/>
	</g>
</g>
<path class="st35" d="M260.4,110.4l-0.9-0.9l0.9-0.9c0.2-0.2,0.2-0.5,0-0.7c-0.2-0.2-0.5-0.2-0.7,0l-0.9,0.9l-0.9-0.9
	c-0.2-0.2-0.5-0.2-0.7,0c-0.2,0.2-0.2,0.5,0,0.7l0.9,0.9l-0.9,0.9c-0.2,0.2-0.2,0.5,0,0.7c0.2,0.2,0.5,0.2,0.7,0l0.9-0.9l0.9,0.9
	c0.2,0.2,0.5,0.2,0.7,0C260.6,111,260.6,110.6,260.4,110.4z"/>
<path class="st35" d="M167.9,63.1l-0.9-0.9l0.9-0.9c0.2-0.2,0.2-0.5,0-0.7c-0.2-0.2-0.5-0.2-0.7,0l-0.9,0.9l-0.9-0.9
	c-0.2-0.2-0.5-0.2-0.7,0c-0.2,0.2-0.2,0.5,0,0.7l0.9,0.9l-0.9,0.9c-0.2,0.2-0.2,0.5,0,0.7c0.2,0.2,0.5,0.2,0.7,0l0.9-0.9l0.9,0.9
	c0.2,0.2,0.5,0.2,0.7,0C168.1,63.7,168.1,63.3,167.9,63.1z"/>
<path class="st35" d="M95.3,40.5l-0.9-0.9l0.9-0.9c0.2-0.2,0.2-0.5,0-0.7c-0.2-0.2-0.5-0.2-0.7,0l-0.9,0.9L92.7,38
	c-0.2-0.2-0.5-0.2-0.7,0c-0.2,0.2-0.2,0.5,0,0.7l0.9,0.9L92,40.5c-0.2,0.2-0.2,0.5,0,0.7c0.2,0.2,0.5,0.2,0.7,0l0.9-0.9l0.9,0.9
	c0.2,0.2,0.5,0.2,0.7,0C95.4,41,95.4,40.7,95.3,40.5z"/>
<g>
	<path class="st35" d="M174.9,92.8c0,1.4,1.2,2.6,2.6,2.6c1.4,0,2.6-1.2,2.6-2.6c0-1.4-1.2-2.6-2.6-2.6
		C176.1,90.2,174.9,91.4,174.9,92.8z M175.9,92.8c0-0.9,0.7-1.6,1.6-1.6c0.9,0,1.6,0.7,1.6,1.6c0,0.9-0.7,1.6-1.6,1.6
		C176.6,94.4,175.9,93.7,175.9,92.8z"/>
</g>
<g>
	<path class="st35" d="M235.7,31.4c0,1.4,1.2,2.6,2.6,2.6s2.6-1.2,2.6-2.6c0-1.4-1.2-2.6-2.6-2.6S235.7,30,235.7,31.4z M236.7,31.4
		c0-0.9,0.7-1.6,1.6-1.6c0.9,0,1.6,0.7,1.6,1.6c0,0.9-0.7,1.6-1.6,1.6C237.4,33,236.7,32.3,236.7,31.4z"/>
</g>
</svg>
